<?xml version="1.0" encoding="utf-8"?>
<!-- Generator: Adobe Illustrator 27.0.1, SVG Export Plug-In . SVG Version: 6.00 Build 0)  -->
<svg version="1.1" id="Layer_1" xmlns="http://www.w3.org/2000/svg" xmlns:xlink="http://www.w3.org/1999/xlink" x="0px" y="0px"
	 viewBox="0 0 165 175" style="enable-background:new 0 0 165 175;" xml:space="preserve">
<style type="text/css">
	.st0{fill:#2AE98D;}
</style>
<path class="st0" d="M42,42c5.5-5.5,12.1-9.7,19.8-12.6C69.4,26.5,78,25,87.5,25H165V0H87.5c-13,0-24.9,2.1-35.6,6.4
	s-20,10.2-27.6,17.9S10.6,41.1,6.4,51.9S0,74.5,0,87.5s2.1,24.9,6.4,35.6s10.2,20,17.9,27.6c7.7,7.7,16.9,13.6,27.6,17.9
	s22.6,6.4,35.6,6.4h25.2v-25H87.5c-9.5,0-18.1-1.5-25.8-4.4s-14.2-7.1-19.8-12.6s-9.7-12.1-12.6-19.8S25,97,25,87.5
	s1.5-18.1,4.4-25.8C32.3,54.1,36.5,47.5,42,42z M165,75H58l43.9,57.8l6.2,8.2l6.2,8.2l0.1,0.2L134,175h31l-25.9-34l-10.2-13.4
	L107.8,100H165V75z"/>
<polygon class="st0" points="165,100 107.8,100 128.8,127.6 139.1,141 108.2,141 101.9,132.8 58,75 165,75 "/>
<polygon class="st0" points="165,175 134,175 114.6,149.4 114.6,127.6 128.8,127.6 139.1,141 "/>
<polygon class="st0" points="118.9,132.8 118.9,149.2 114.4,149.2 108.2,141 101.9,132.8 "/>
</svg>
